<svg xmlns="http://www.w3.org/2000/svg" viewBox="0 -0.5 64 64" shape-rendering="crispEdges">
<metadata>Made with Pixels to Svg https://codepen.io/shshaw/pen/XbxvNj</metadata>
<path stroke="rgba(75,103,254,0.10588235294117647)" d="M24 0h1M39 0h1" />
<path stroke="#000000" d="M25 0h14M24 1h1M39 1h1M23 2h1M40 2h1M23 3h1M40 3h1M4 4h1M10 4h1M23 4h1M40 4h1M53 4h1M59 4h1M3 5h1M5 5h1M9 5h1M11 5h1M23 5h1M26 5h5M33 5h5M40 5h1M52 5h1M54 5h1M58 5h1M60 5h1M3 6h1M5 6h1M9 6h1M11 6h1M23 6h1M26 6h1M30 6h1M33 6h1M37 6h1M40 6h1M52 6h1M54 6h1M58 6h1M60 6h1M3 7h1M5 7h1M9 7h1M11 7h1M23 7h1M26 7h1M30 7h1M33 7h1M37 7h1M40 7h1M52 7h1M54 7h1M58 7h1M60 7h1M3 8h1M6 8h3M11 8h1M23 8h1M26 8h1M30 8h1M33 8h1M37 8h1M40 8h1M52 8h1M55 8h3M60 8h1M4 9h1M10 9h1M23 9h1M26 9h5M33 9h5M40 9h1M53 9h1M59 9h1M5 10h5M23 10h1M40 10h1M54 10h5M5 11h1M9 11h1M23 11h1M40 11h1M54 11h1M58 11h1M5 12h5M23 12h1M26 12h12M40 12h1M54 12h5M5 13h1M9 13h1M23 13h1M26 13h1M37 13h1M40 13h1M54 13h1M58 13h1M5 14h5M23 14h1M26 14h1M37 14h1M40 14h1M54 14h5M5 15h1M9 15h1M23 15h1M26 15h12M40 15h1M54 15h1M58 15h1M5 16h5M24 16h1M39 16h1M54 16h5M5 17h1M9 17h1M25 17h14M54 17h1M58 17h1M5 18h5M28 18h1M35 18h1M54 18h5M5 19h1M9 19h1M28 19h1M35 19h1M54 19h1M58 19h1M5 20h5M11 20h42M54 20h5M4 21h1M10 21h1M53 21h1M59 21h1M4 22h1M10 22h1M53 22h1M59 22h1M5 23h1M10 23h1M53 23h1M58 23h1M6 24h1M10 24h1M53 24h1M57 24h1M7 25h3M11 25h42M54 25h3M39 26h4M51 26h1M35 27h4M47 27h4M31 28h4M43 28h4M27 29h4M39 29h4M23 30h4M35 30h4M19 31h4M31 31h4M15 32h4M27 32h4M14 33h1M23 33h4M14 34h1M23 34h4M15 35h4M27 35h4M19 36h4M31 36h4M23 37h4M35 37h4M27 38h4M39 38h4M31 39h4M43 39h4M35 40h4M47 40h4M39 41h4M51 41h1M39 42h4M51 42h1M35 43h4M47 43h4M31 44h4M43 44h4M27 45h4M39 45h4M23 46h4M35 46h4M19 47h4M31 47h4M15 48h4M27 48h4M14 49h1M23 49h4M13 50h38M12 51h1M51 51h1M11 52h1M52 52h1M11 53h1M52 53h1M11 54h1M52 54h1M11 55h42M13 56h3M20 56h3M27 56h3M34 56h3M41 56h3M48 56h3M12 57h1M16 57h1M19 57h1M23 57h1M26 57h1M30 57h1M33 57h1M37 57h1M40 57h1M44 57h1M47 57h1M51 57h1M11 58h1M17 58h2M24 58h2M31 58h2M38 58h2M45 58h2M52 58h1M11 59h1M14 59h1M17 59h2M21 59h1M24 59h2M28 59h1M31 59h2M35 59h1M38 59h2M42 59h1M45 59h2M49 59h1M52 59h1M11 60h1M17 60h2M24 60h2M31 60h2M38 60h2M45 60h2M52 60h1M12 61h1M16 61h1M19 61h1M23 61h1M26 61h1M30 61h1M33 61h1M37 61h1M40 61h1M44 61h1M47 61h1M51 61h1M13 62h3M20 62h3M27 62h3M34 62h3M41 62h3M48 62h3" />
<path stroke="rgba(70,100,255,0.2)" d="M21 1h1" />
<path stroke="rgba(72,97,254,0.5529411764705883)" d="M22 1h1M41 1h1" />
<path stroke="rgba(71,97,254,0.8431372549019608)" d="M23 1h1M40 1h1" />
<path stroke="#b8b8b8" d="M25 1h14M39 2h1M39 3h1M39 4h1M39 5h1M39 6h1M39 7h1M39 8h1M39 9h1M39 10h1M8 11h1M39 11h1M57 11h1M39 12h1M8 13h1M39 13h1M57 13h1M39 14h1M8 15h1M39 15h1M57 15h1M8 17h1M57 17h1M8 19h1M57 19h1M5 21h5M12 21h41M54 21h5M9 22h1M52 22h1M58 22h1M52 23h1M13 51h38M51 52h1M51 53h1M13 57h3M20 57h3M27 57h3M34 57h3M41 57h3M48 57h3M16 58h1M23 58h1M30 58h1M37 58h1M44 58h1M51 58h1M13 59h1M16 59h1M20 59h1M23 59h1M27 59h1M30 59h1M34 59h1M37 59h1M41 59h1M44 59h1M48 59h1M51 59h1M13 60h2M16 60h1M20 60h2M23 60h1M27 60h2M30 60h1M34 60h2M37 60h1M41 60h2M44 60h1M48 60h2M51 60h1" />
<path stroke="rgba(75,100,255,0.2)" d="M42 1h1" />
<path stroke="rgba(78,98,254,0.050980392156862744)" d="M18 2h1M45 2h1" />
<path stroke="rgba(72,101,254,0.4549019607843137)" d="M19 2h1" />
<path stroke="rgba(70,98,254,0.8352941176470589)" d="M20 2h1M43 2h1" />
<path stroke="#4662ff" d="M21 2h2M41 2h1" />
<path stroke="#383838" d="M24 2h1M24 3h1M24 4h1M4 5h1M10 5h1M24 5h1M53 5h1M59 5h1M24 6h1M24 7h1M24 8h1M24 9h1M24 10h1M6 11h1M24 11h1M55 11h1M24 12h1M6 13h1M24 13h1M55 13h1M24 14h1M6 15h1M24 15h1M55 15h1M25 16h14M6 17h1M55 17h1M29 18h6M6 19h1M29 19h6M55 19h1M11 21h1M5 22h1M11 22h1M54 22h1M6 23h1M9 23h1M11 23h1M54 23h1M57 23h1M7 24h3M11 24h42M54 24h3M47 26h4M43 27h4M39 28h4M35 29h4M31 30h4M27 31h4M23 32h4M19 33h4M15 34h4M19 35h4M23 36h4M27 37h4M31 38h4M35 39h4M39 40h4M43 41h4M47 42h4M43 43h4M39 44h4M35 45h4M31 46h4M27 47h4M23 48h4M19 49h4M12 52h1M12 53h1M12 54h40M12 58h1M14 58h2M19 58h1M21 58h2M26 58h1M28 58h2M33 58h1M35 58h2M40 58h1M42 58h2M47 58h1M49 58h2M12 59h1M15 59h1M19 59h1M22 59h1M26 59h1M29 59h1M33 59h1M36 59h1M40 59h1M43 59h1M47 59h1M50 59h1M12 60h1M19 60h1M26 60h1M33 60h1M40 60h1M47 60h1M13 61h3M20 61h3M27 61h3M34 61h3M41 61h3M48 61h3" />
<path stroke="#707070" d="M25 2h14M25 3h14M25 4h14M25 5h1M31 5h2M38 5h1M4 6h1M10 6h1M25 6h1M31 6h2M38 6h1M53 6h1M59 6h1M4 7h1M10 7h1M25 7h1M31 7h2M38 7h1M53 7h1M59 7h1M4 8h2M9 8h2M25 8h1M31 8h2M38 8h1M53 8h2M58 8h2M5 9h5M25 9h1M31 9h2M38 9h1M54 9h5M25 10h14M7 11h1M25 11h14M56 11h1M25 12h1M38 12h1M7 13h1M25 13h1M38 13h1M56 13h1M25 14h1M38 14h1M7 15h1M25 15h1M38 15h1M56 15h1M7 17h1M56 17h1M7 19h1M56 19h1M6 22h3M12 22h40M55 22h3M7 23h2M12 23h40M55 23h2M43 26h4M39 27h4M35 28h4M31 29h4M27 30h4M23 31h4M19 32h4M15 33h4M19 34h4M23 35h4M27 36h4M31 37h4M35 38h4M39 39h4M43 40h4M47 41h4M43 42h4M39 43h4M35 44h4M31 45h4M27 46h4M23 47h4M19 48h4M15 49h4M13 52h38M13 53h38M13 58h1M20 58h1M27 58h1M34 58h1M41 58h1M48 58h1M15 60h1M22 60h1M29 60h1M36 60h1M43 60h1M50 60h1" />
<path stroke="#4663ff" d="M42 2h1M22 3h1M41 3h2" />
<path stroke="rgba(70,101,254,0.4549019607843137)" d="M44 2h1" />
<path stroke="rgba(79,111,255,0.06274509803921569)" d="M16 3h1M47 3h1" />
<path stroke="rgba(70,100,255,0.4980392156862745)" d="M17 3h1M46 3h1" />
<path stroke="rgba(71,100,254,0.9294117647058824)" d="M18 3h1M45 3h1" />
<path stroke="#4664ff" d="M19 3h2M44 3h1M17 4h1M20 4h1M44 4h1" />
<path stroke="#4764ff" d="M21 3h1" />
<path stroke="#4763ff" d="M43 3h1" />
<path stroke="rgba(255,255,255,0.00392156862745098)" d="M14 4h1M49 4h1M4 14h1M59 14h1M1 20h1M62 20h1M1 43h1M62 43h1M4 49h1M59 49h1M7 53h1M56 53h1M10 56h1M53 56h1" />
<path stroke="rgba(71,103,255,0.3764705882352941)" d="M15 4h1" />
<path stroke="rgba(70,101,254,0.9215686274509803)" d="M16 4h1" />
<path stroke="#4665ff" d="M18 4h2M21 4h2M41 4h3M45 4h2" />
<path stroke="rgba(70,100,254,0.9215686274509803)" d="M47 4h1" />
<path stroke="rgba(71,100,255,0.3764705882352941)" d="M48 4h1" />
<path stroke="rgba(70,106,255,0.1411764705882353)" d="M13 5h1" />
<path stroke="rgba(70,102,255,0.7686274509803922)" d="M14 5h1M49 5h1" />
<path stroke="#4666ff" d="M15 5h1M17 5h6M41 5h2M44 5h2M47 5h2" />
<path stroke="#4667ff" d="M16 5h1M45 6h1" />
<path stroke="#4566ff" d="M43 5h1M46 5h1" />
<path stroke="rgba(72,102,255,0.13725490196078433)" d="M50 5h1" />
<path stroke="rgba(72,105,255,0.3333333333333333)" d="M12 6h1" />
<path stroke="rgba(70,103,255,0.9450980392156862)" d="M13 6h1" />
<path stroke="#4567ff" d="M14 6h1M19 6h1M22 6h1M46 6h1M49 6h1" />
<path stroke="#4568ff" d="M15 6h1M17 6h2M41 6h3M47 6h2" />
<path stroke="#4668ff" d="M16 6h1M20 6h2M44 6h1" />
<path stroke="#1990ec" d="M27 6h1M34 6h1M35 7h1M29 8h1M36 8h1" />
<path stroke="#8cc8f6" d="M28 6h2M35 6h2M29 7h1M36 7h1" />
<path stroke="rgba(69,104,255,0.9450980392156862)" d="M50 6h1" />
<path stroke="rgba(69,105,255,0.3333333333333333)" d="M51 6h1" />
<path stroke="#456aff" d="M12 7h1M20 7h1M41 7h1M15 8h1M22 8h1M41 8h1M45 8h2M49 8h1M51 8h1" />
<path stroke="#4669ff" d="M13 7h1M45 7h1" />
<path stroke="#4569ff" d="M14 7h6M21 7h2M42 7h3M46 7h6" />
<path stroke="#0c4876" d="M27 7h1M34 7h1M27 8h2M34 8h2" />
<path stroke="#6390ec" d="M28 7h1" />
<path stroke="#446bff" d="M12 8h1M19 8h1" />
<path stroke="#446aff" d="M13 8h2M17 8h1M47 8h1" />
<path stroke="#456bff" d="M16 8h1M18 8h1M20 8h2M42 8h3M48 8h1M50 8h1" />
<path stroke="#446dff" d="M11 9h1M14 9h1M21 9h2M43 9h1M47 9h1M52 9h1" />
<path stroke="#446cff" d="M12 9h1M15 9h6M41 9h2M45 9h2M50 9h2" />
<path stroke="#456cff" d="M13 9h1M44 9h1M48 9h2" />
<path stroke="#446eff" d="M10 10h13M41 10h13" />
<path stroke="#4370ff" d="M10 11h5M41 11h1M44 11h1M46 11h1M49 11h1M53 11h1" />
<path stroke="#446fff" d="M15 11h2M20 11h1M52 11h1" />
<path stroke="#4470ff" d="M17 11h2M21 11h2M43 11h1M45 11h1M47 11h2M50 11h2" />
<path stroke="#436fff" d="M19 11h1M42 11h1" />
<path stroke="#4372ff" d="M10 12h1M15 12h1M19 12h3M42 12h2M46 12h1M48 12h1M52 12h2" />
<path stroke="#4371ff" d="M11 12h4M16 12h1M18 12h1M44 12h2M47 12h1M49 12h3" />
<path stroke="#4471ff" d="M17 12h1M41 12h1" />
<path stroke="#4472ff" d="M22 12h1" />
<path stroke="#4373ff" d="M10 13h1M13 13h7M22 13h1M41 13h1M47 13h3M52 13h1" />
<path stroke="#4273ff" d="M11 13h2M20 13h1M43 13h3M50 13h2" />
<path stroke="#4274ff" d="M21 13h1" />
<path stroke="#525252" d="M27 13h1M29 13h1M31 13h1M33 13h1M35 13h1M27 14h1M29 14h1M31 14h1M33 14h1M35 14h1" />
<path stroke="#a5a5a5" d="M28 13h1M30 13h1M32 13h1M34 13h1M36 13h1M28 14h1M30 14h1M32 14h1M34 14h1M36 14h1" />
<path stroke="#4374ff" d="M42 13h1M46 13h1M53 13h1" />
<path stroke="#4275ff" d="M10 14h1M13 14h1M15 14h1M17 14h5M43 14h1M46 14h2M49 14h4" />
<path stroke="#4276ff" d="M11 14h2M14 14h1M53 14h1M46 15h1" />
<path stroke="#4376ff" d="M16 14h1" />
<path stroke="#4375ff" d="M22 14h1M41 14h2M44 14h2M48 14h1" />
<path stroke="rgba(66,119,255,0.3764705882352941)" d="M4 15h1" />
<path stroke="#4177ff" d="M10 15h1M13 15h1M16 15h1M41 15h2M50 15h3" />
<path stroke="#4277ff" d="M11 15h2M14 15h2M17 15h6M43 15h3M47 15h3M53 15h1" />
<path stroke="rgba(68,120,255,0.3803921568627451)" d="M59 15h1" />
<path stroke="rgba(79,127,255,0.06274509803921569)" d="M3 16h1M60 16h1" />
<path stroke="rgba(65,122,254,0.9176470588235294)" d="M4 16h1M59 16h1" />
<path stroke="#4179ff" d="M10 16h5M16 16h1M19 16h3M40 16h6M47 16h7" />
<path stroke="#4279ff" d="M15 16h1M18 16h1M23 16h1M46 16h1" />
<path stroke="#4278ff" d="M17 16h1" />
<path stroke="#4178ff" d="M22 16h1" />
<path stroke="rgba(64,124,255,0.4980392156862745)" d="M3 17h1M60 17h1" />
<path stroke="#417bff" d="M4 17h1M10 17h3M14 17h3M19 17h4M24 17h1M39 17h5M48 17h5M59 17h1" />
<path stroke="#407bff" d="M13 17h1M17 17h2M23 17h1M44 17h1M46 17h1M53 17h1" />
<path stroke="#417aff" d="M45 17h1M47 17h1" />
<path stroke="rgba(85,127,255,0.047058823529411764)" d="M2 18h1" />
<path stroke="rgba(64,125,254,0.9294117647058824)" d="M3 18h1M60 18h1" />
<path stroke="#407cff" d="M4 18h1M11 18h1M13 18h1M15 18h1M22 18h1M27 18h1M38 18h2M42 18h1M52 18h1" />
<path stroke="#407dff" d="M10 18h1M12 18h1M14 18h1M16 18h1M18 18h4M23 18h4M36 18h1M40 18h2M43 18h2M47 18h1M49 18h1M51 18h1" />
<path stroke="#417cff" d="M17 18h1M46 18h1M59 18h1" />
<path stroke="#417dff" d="M37 18h1M45 18h1M48 18h1M50 18h1M53 18h1" />
<path stroke="rgba(78,137,254,0.050980392156862744)" d="M61 18h1" />
<path stroke="rgba(65,127,254,0.4549019607843137)" d="M2 19h1M61 19h1" />
<path stroke="#3f7fff" d="M3 19h1M10 19h2M13 19h1M15 19h1M18 19h1M36 19h1M39 19h3M43 19h1M46 19h1M48 19h1M60 19h1" />
<path stroke="#407fff" d="M4 19h1M12 19h1M14 19h1M19 19h6M26 19h1M38 19h1M42 19h1M44 19h2M49 19h5M59 19h1" />
<path stroke="#407eff" d="M16 19h2M25 19h1M27 19h1" />
<path stroke="#3f7eff" d="M37 19h1M47 19h1" />
<path stroke="rgba(64,129,254,0.8549019607843137)" d="M2 20h1" />
<path stroke="#3f81ff" d="M3 20h1M10 20h1M59 20h2" />
<path stroke="#3f80ff" d="M4 20h1M53 20h1" />
<path stroke="rgba(64,129,254,0.8588235294117647)" d="M61 20h1" />
<path stroke="rgba(65,131,255,0.22745098039215686)" d="M1 21h1M62 21h1" />
<path stroke="#3e83ff" d="M2 21h1M60 21h2" />
<path stroke="#3e82ff" d="M3 21h1" />
<path stroke="rgba(62,133,254,0.5607843137254902)" d="M1 22h1" />
<path stroke="#3d85ff" d="M2 22h1" />
<path stroke="#3e85ff" d="M3 22h1M60 22h1" />
<path stroke="#3e84ff" d="M61 22h1" />
<path stroke="rgba(63,134,255,0.5647058823529412)" d="M62 22h1" />
<path stroke="rgba(62,135,254,0.8431372549019608)" d="M1 23h1" />
<path stroke="#3d87ff" d="M2 23h3M59 23h3" />
<path stroke="rgba(61,135,254,0.8470588235294118)" d="M62 23h1" />
<path stroke="rgba(63,136,254,0.10980392156862745)" d="M0 24h1" />
<path stroke="#3d89ff" d="M1 24h2M5 24h1M59 24h1" />
<path stroke="#3c89ff" d="M3 24h2M58 24h1M61 24h2" />
<path stroke="#3c88ff" d="M60 24h1" />
<path stroke="rgba(61,140,254,0.11372549019607843)" d="M63 24h1" />
<path stroke="rgba(60,139,255,0.32941176470588235)" d="M0 25h1" />
<path stroke="#3b8bff" d="M1 25h1M58 25h1" />
<path stroke="#3c8bff" d="M2 25h5M10 25h1M53 25h1M57 25h1M59 25h1M61 25h2" />
<path stroke="#3c8aff" d="M60 25h1" />
<path stroke="rgba(59,139,255,0.33725490196078434)" d="M63 25h1" />
<path stroke="rgba(59,141,254,0.5176470588235295)" d="M0 26h1M63 26h1" />
<path stroke="#3c8dff" d="M1 26h1M28 26h1" />
<path stroke="#3b8dff" d="M2 26h8M11 26h17M30 26h9M52 26h11" />
<path stroke="#3b8eff" d="M10 26h1M29 26h1" />
<path stroke="rgba(58,144,255,0.6784313725490196)" d="M0 27h1M63 27h1" />
<path stroke="#3a8fff" d="M1 27h3M9 27h4M14 27h4M19 27h12M32 27h3M51 27h2M54 27h1M58 27h5" />
<path stroke="#3b8fff" d="M4 27h5M13 27h1M18 27h1M53 27h1M55 27h3" />
<path stroke="#3a90ff" d="M31 27h1" />
<path stroke="rgba(57,145,255,0.8)" d="M0 28h1M63 28h1" />
<path stroke="#3a91ff" d="M1 28h1M4 28h1M7 28h1M11 28h1M13 28h2M18 28h1M24 28h3M28 28h1M30 28h1M48 28h3M57 28h2M60 28h2" />
<path stroke="#3991ff" d="M2 28h2M5 28h2M8 28h3M12 28h1M15 28h1M17 28h1M19 28h2M23 28h1M27 28h1M29 28h1M47 28h1M51 28h6M59 28h1M62 28h1" />
<path stroke="#3a92ff" d="M16 28h1M21 28h1" />
<path stroke="#3992ff" d="M22 28h1" />
<path stroke="rgba(57,148,254,0.8980392156862745)" d="M0 29h1" />
<path stroke="#3994ff" d="M1 29h1M14 29h1M22 29h1M26 29h1M55 29h1M59 29h1" />
<path stroke="#3993ff" d="M2 29h1M4 29h3M9 29h1M11 29h2M16 29h4M21 29h1M23 29h2M43 29h3M47 29h2M50 29h2M53 29h1M56 29h1M60 29h1M62 29h1" />
<path stroke="#3893ff" d="M3 29h1M7 29h2M10 29h1M15 29h1M20 29h1M25 29h1M46 29h1M49 29h1M54 29h1M57 29h2" />
<path stroke="#3894ff" d="M13 29h1M52 29h1M61 29h1" />
<path stroke="rgba(58,147,255,0.8784313725490196)" d="M63 29h1" />
<path stroke="rgba(56,149,254,0.9490196078431372)" d="M0 30h1" />
<path stroke="#3895ff" d="M1 30h1M3 30h2M8 30h1M10 30h5M16 30h1M22 30h1M39 30h2M44 30h9M54 30h1M56 30h2M59 30h4" />
<path stroke="#3896ff" d="M2 30h1M5 30h3M9 30h1M15 30h1M17 30h5M41 30h3M53 30h1M55 30h1M58 30h1" />
<path stroke="rgba(56,149,254,0.9254901960784314)" d="M63 30h1" />
<path stroke="#3798ff" d="M0 31h1M3 31h1M6 31h2M10 31h1M14 31h2M18 31h1M35 31h2M38 31h2M42 31h2M49 31h1M54 31h1M57 31h2M60 31h1" />
<path stroke="#3797ff" d="M1 31h2M4 31h2M9 31h1M11 31h3M16 31h2M37 31h1M40 31h2M44 31h2M47 31h2M50 31h4M55 31h2M59 31h1M61 31h2" />
<path stroke="#3898ff" d="M8 31h1" />
<path stroke="#3897ff" d="M46 31h1" />
<path stroke="rgba(55,151,254,0.9764705882352941)" d="M63 31h1" />
<path stroke="#3799ff" d="M0 32h1M5 32h1M32 32h1M37 32h1M39 32h2M42 32h2M46 32h1M52 32h1M61 32h1" />
<path stroke="#3699ff" d="M1 32h1M3 32h1M6 32h1M8 32h4M31 32h1M35 32h2M38 32h1M44 32h1M47 32h1M49 32h3M53 32h4M58 32h1M60 32h1" />
<path stroke="#369aff" d="M2 32h1M7 32h1M12 32h3M33 32h1M41 32h1M45 32h1M48 32h1M59 32h1M62 32h1" />
<path stroke="#379aff" d="M4 32h1M34 32h1M57 32h1" />
<path stroke="rgba(54,153,254,0.9764705882352941)" d="M63 32h1" />
<path stroke="rgba(53,157,254,0.9490196078431372)" d="M0 33h1" />
<path stroke="#359cff" d="M1 33h2M4 33h5M10 33h1M12 33h1M27 33h1M31 33h1M33 33h2M36 33h1M44 33h1M52 33h3" />
<path stroke="#359bff" d="M3 33h1M13 33h1M28 33h2M32 33h1M35 33h1M40 33h2M45 33h1M47 33h1M49 33h2M58 33h1M62 33h1" />
<path stroke="#369bff" d="M9 33h1M30 33h1M37 33h1M46 33h1M48 33h1M57 33h1" />
<path stroke="#369cff" d="M11 33h1M38 33h2M42 33h2M51 33h1M55 33h2M59 33h3" />
<path stroke="rgba(54,155,254,0.9254901960784314)" d="M63 33h1" />
<path stroke="rgba(52,158,254,0.8980392156862745)" d="M0 34h1" />
<path stroke="#359dff" d="M1 34h1M3 34h1M28 34h1M35 34h2M41 34h1M43 34h2M46 34h1M55 34h1M58 34h1M60 34h1" />
<path stroke="#349eff" d="M2 34h1M4 34h2M9 34h1M31 34h1M34 34h1M40 34h1M49 34h1M53 34h1M56 34h1M61 34h1" />
<path stroke="#349dff" d="M6 34h1M8 34h1M13 34h1M27 34h1M37 34h3M45 34h1M47 34h1M50 34h1M54 34h1M57 34h1M59 34h1M62 34h1" />
<path stroke="#359eff" d="M7 34h1M10 34h3M29 34h2M32 34h2M42 34h1M48 34h1M51 34h2" />
<path stroke="rgba(53,158,255,0.8784313725490196)" d="M63 34h1" />
<path stroke="rgba(52,160,255,0.8)" d="M0 35h1" />
<path stroke="#33a0ff" d="M1 35h1M6 35h1M8 35h1M11 35h1M32 35h1M34 35h1M36 35h1M38 35h1M41 35h1M45 35h1M51 35h1M54 35h1M57 35h1M60 35h1" />
<path stroke="#349fff" d="M2 35h1M4 35h1M12 35h1M33 35h1M44 35h1M50 35h1M53 35h1" />
<path stroke="#34a0ff" d="M3 35h1M5 35h1M13 35h1M35 35h1M39 35h2M43 35h1M46 35h2M52 35h1M55 35h2M61 35h1" />
<path stroke="#339fff" d="M7 35h1M9 35h2M14 35h1M31 35h1M37 35h1M42 35h1M48 35h2M58 35h2M62 35h1" />
<path stroke="rgba(51,160,255,0.8)" d="M63 35h1" />
<path stroke="rgba(51,162,255,0.6784313725490196)" d="M0 36h1" />
<path stroke="#33a1ff" d="M1 36h1M7 36h1M15 36h1M18 36h1M35 36h1M44 36h2M48 36h1M51 36h1" />
<path stroke="#32a1ff" d="M2 36h2M49 36h1M52 36h2M56 36h1M60 36h1M62 36h1" />
<path stroke="#32a2ff" d="M4 36h2M9 36h1M11 36h2M36 36h1M38 36h2M43 36h1M46 36h2M54 36h1M57 36h3M61 36h1" />
<path stroke="#33a2ff" d="M6 36h1M8 36h1M10 36h1M13 36h2M16 36h2M37 36h1M40 36h3M50 36h1M55 36h1" />
<path stroke="rgba(50,162,255,0.6784313725490196)" d="M63 36h1" />
<path stroke="rgba(50,164,254,0.5176470588235295)" d="M0 37h1M63 37h1" />
<path stroke="#31a3ff" d="M1 37h2M6 37h3M11 37h1M14 37h1M18 37h1M43 37h1M46 37h4M53 37h1" />
<path stroke="#31a4ff" d="M3 37h1M13 37h1M19 37h1M22 37h1M41 37h1M44 37h1M52 37h1M56 37h2" />
<path stroke="#32a3ff" d="M4 37h2M12 37h1M16 37h2M20 37h1M40 37h1M42 37h1M45 37h1M51 37h1M54 37h2M58 37h1M61 37h2" />
<path stroke="#32a4ff" d="M9 37h2M15 37h1M21 37h1M39 37h1M50 37h1M59 37h2" />
<path stroke="rgba(50,166,255,0.33725490196078434)" d="M0 38h1M63 38h1" />
<path stroke="#30a5ff" d="M1 38h1M4 38h3M8 38h2M14 38h1M18 38h1M20 38h1M26 38h1M44 38h1M49 38h1M52 38h1M60 38h2" />
<path stroke="#31a6ff" d="M2 38h1M13 38h1M21 38h2M25 38h1M48 38h1M50 38h1M54 38h1M56 38h1M59 38h1M62 38h1" />
<path stroke="#30a6ff" d="M3 38h1M11 38h2M15 38h1M17 38h1M23 38h2M46 38h1M51 38h1M53 38h1M58 38h1" />
<path stroke="#31a5ff" d="M7 38h1M10 38h1M16 38h1M19 38h1M43 38h1M45 38h1M47 38h1M55 38h1M57 38h1" />
<path stroke="rgba(52,175,254,0.11372549019607843)" d="M0 39h1" />
<path stroke="#2fa7ff" d="M1 39h4M12 39h4M18 39h1M20 39h1M23 39h1M48 39h3M54 39h3" />
<path stroke="#30a7ff" d="M5 39h1M10 39h1M16 39h1M24 39h1M26 39h2M30 39h1M47 39h1M51 39h1M53 39h1M62 39h1" />
<path stroke="#30a8ff" d="M6 39h2M9 39h1M17 39h1M19 39h1M22 39h1M25 39h1M29 39h1M57 39h1M61 39h1" />
<path stroke="#2fa8ff" d="M8 39h1M11 39h1M21 39h1M28 39h1M52 39h1M58 39h3" />
<path stroke="rgba(51,170,255,0.11764705882352941)" d="M63 39h1" />
<path stroke="rgba(47,169,254,0.8470588235294118)" d="M1 40h1" />
<path stroke="#2ea9ff" d="M2 40h1M4 40h1M8 40h2M11 40h2M16 40h2M19 40h3M25 40h1M29 40h1M33 40h1M51 40h1M54 40h4" />
<path stroke="#2faaff" d="M3 40h1M5 40h1M18 40h1M23 40h2M31 40h1" />
<path stroke="#2eaaff" d="M6 40h2M10 40h1M14 40h2M22 40h1M34 40h1M52 40h2M61 40h1" />
<path stroke="#2fa9ff" d="M13 40h1M26 40h3M30 40h1M32 40h1M58 40h3" />
<path stroke="rgba(47,169,254,0.8509803921568627)" d="M62 40h1" />
<path stroke="rgba(46,173,255,0.5647058823529412)" d="M1 41h1M62 41h1" />
<path stroke="#2eabff" d="M2 41h1M4 41h1M7 41h1M13 41h1M16 41h2M21 41h1M26 41h1M31 41h1M56 41h2" />
<path stroke="#2dacff" d="M3 41h1M5 41h2M8 41h2M15 41h1M18 41h2M22 41h2M36 41h1M38 41h1" />
<path stroke="#2dabff" d="M10 41h2M14 41h1M20 41h1M24 41h2M27 41h4M32 41h4M37 41h1M52 41h3M59 41h3" />
<path stroke="#2eacff" d="M12 41h1M55 41h1M58 41h1" />
<path stroke="rgba(47,177,255,0.23137254901960785)" d="M1 42h1M62 42h1" />
<path stroke="#2dadff" d="M2 42h1M11 42h1M22 42h1M34 42h1M37 42h1M58 42h1M60 42h1" />
<path stroke="#2caeff" d="M3 42h2M16 42h1M31 42h1M36 42h1M38 42h1M52 42h1M57 42h1" />
<path stroke="#2cadff" d="M5 42h6M12 42h4M17 42h5M23 42h8M32 42h2M35 42h1M53 42h4M59 42h1M61 42h1" />
<path stroke="rgba(43,175,254,0.8588235294117647)" d="M2 43h1M61 43h1" />
<path stroke="#2bafff" d="M3 43h3M7 43h10M18 43h6M25 43h3M29 43h6M51 43h10" />
<path stroke="#2cafff" d="M6 43h1M24 43h1" />
<path stroke="#2bb0ff" d="M17 43h1M28 43h1" />
<path stroke="rgba(43,178,254,0.4549019607843137)" d="M2 44h1M61 44h1" />
<path stroke="#2ab1ff" d="M3 44h1M5 44h4M10 44h1M12 44h4M18 44h1M21 44h1M24 44h4M30 44h1M50 44h1M52 44h1M54 44h2M57 44h2M60 44h1" />
<path stroke="#2ab0ff" d="M4 44h1M9 44h1M11 44h1M17 44h1M22 44h2M28 44h2M47 44h1" />
<path stroke="#29b1ff" d="M16 44h1M19 44h2M48 44h2M51 44h1M53 44h1M56 44h1M59 44h1" />
<path stroke="rgba(58,196,254,0.050980392156862744)" d="M2 45h1M61 45h1" />
<path stroke="rgba(40,179,254,0.9333333333333333)" d="M3 45h1" />
<path stroke="#29b2ff" d="M4 45h1M7 45h1M9 45h2M12 45h1M21 45h1M26 45h1M54 45h1" />
<path stroke="#29b3ff" d="M5 45h2M11 45h1M15 45h1M17 45h4M22 45h4M43 45h2M47 45h2M50 45h4M56 45h4" />
<path stroke="#28b3ff" d="M8 45h1M13 45h1M16 45h1M46 45h1M49 45h1M55 45h1" />
<path stroke="#28b2ff" d="M14 45h1M45 45h1" />
<path stroke="rgba(41,178,254,0.9333333333333333)" d="M60 45h1" />
<path stroke="rgba(40,180,255,0.4980392156862745)" d="M3 46h1" />
<path stroke="#28b4ff" d="M4 46h1M15 46h1M21 46h1M39 46h1M42 46h2M45 46h1M52 46h1M59 46h1" />
<path stroke="#27b5ff" d="M5 46h1M9 46h1M12 46h3M17 46h1M19 46h1M46 46h1M54 46h1" />
<path stroke="#28b5ff" d="M6 46h1M41 46h1M47 46h1M51 46h1M53 46h1M56 46h1M58 46h1" />
<path stroke="#27b4ff" d="M7 46h2M10 46h2M16 46h1M18 46h1M20 46h1M22 46h1M40 46h1M44 46h1M48 46h3M55 46h1M57 46h1" />
<path stroke="rgba(39,181,255,0.5019607843137255)" d="M60 46h1" />
<path stroke="rgba(47,191,255,0.06274509803921569)" d="M3 47h1" />
<path stroke="rgba(38,183,254,0.9176470588235294)" d="M4 47h1M59 47h1" />
<path stroke="#26b6ff" d="M5 47h1M7 47h1M10 47h2M14 47h2M17 47h1M36 47h1M38 47h1M41 47h1M43 47h3M47 47h3M51 47h2M54 47h3" />
<path stroke="#27b6ff" d="M6 47h1M8 47h2M12 47h1M16 47h1M18 47h1M35 47h1M42 47h1M46 47h1M50 47h1M58 47h1" />
<path stroke="#27b7ff" d="M13 47h1" />
<path stroke="#26b7ff" d="M37 47h1M39 47h2M53 47h1M57 47h1" />
<path stroke="rgba(42,184,254,0.07058823529411765)" d="M60 47h1" />
<path stroke="rgba(39,184,255,0.3803921568627451)" d="M4 48h1" />
<path stroke="#25b8ff" d="M5 48h1M7 48h1M11 48h2M35 48h1M37 48h1M39 48h1M41 48h1M43 48h3M49 48h3M54 48h3M58 48h1" />
<path stroke="#24b8ff" d="M6 48h1M13 48h2M32 48h1M34 48h1M38 48h1M46 48h3M52 48h1M57 48h1" />
<path stroke="#24b7ff" d="M8 48h3M31 48h1M36 48h1" />
<path stroke="#25b7ff" d="M33 48h1M40 48h1M42 48h1M53 48h1" />
<path stroke="rgba(36,184,255,0.3803921568627451)" d="M59 48h1" />
<path stroke="rgba(35,186,255,0.7686274509803922)" d="M5 49h1" />
<path stroke="#24baff" d="M6 49h1M8 49h1M31 49h1M33 49h1M37 49h1M40 49h2M48 49h1M50 49h3M54 49h1M57 49h1" />
<path stroke="#24b9ff" d="M7 49h1M9 49h2M12 49h2M27 49h1M30 49h1M38 49h2M45 49h1M49 49h1M55 49h1" />
<path stroke="#23b9ff" d="M11 49h1M32 49h1M36 49h1M43 49h1M46 49h1M53 49h1M56 49h1" />
<path stroke="#23baff" d="M28 49h2M34 49h2M42 49h1M44 49h1M47 49h1" />
<path stroke="rgba(36,186,255,0.7686274509803922)" d="M58 49h1" />
<path stroke="rgba(36,189,255,0.13725490196078433)" d="M5 50h1M58 50h1" />
<path stroke="rgba(34,187,255,0.9411764705882353)" d="M6 50h1M57 50h1" />
<path stroke="#22bbff" d="M7 50h1M9 50h3M51 50h1M54 50h1" />
<path stroke="#23bcff" d="M8 50h1" />
<path stroke="#22bcff" d="M12 50h1M56 50h1" />
<path stroke="#23bbff" d="M52 50h2M55 50h1" />
<path stroke="rgba(33,189,255,0.3333333333333333)" d="M6 51h1M57 51h1" />
<path stroke="#20bcff" d="M7 51h1" />
<path stroke="#21bcff" d="M8 51h1M10 51h1M53 51h1M56 51h1" />
<path stroke="#21bdff" d="M9 51h1M11 51h1M54 51h1" />
<path stroke="#20bdff" d="M52 51h1M55 51h1" />
<path stroke="rgba(33,190,254,0.5411764705882353)" d="M7 52h1" />
<path stroke="#20beff" d="M8 52h1M10 52h1M53 52h1M55 52h1" />
<path stroke="#1fbfff" d="M9 52h1" />
<path stroke="#1fbeff" d="M54 52h1" />
<path stroke="rgba(33,190,254,0.5450980392156862)" d="M56 52h1" />
<path stroke="rgba(31,191,254,0.6431372549019608)" d="M8 53h1" />
<path stroke="#1fc0ff" d="M9 53h1" />
<path stroke="#1ebfff" d="M10 53h1" />
<path stroke="#1ec0ff" d="M53 53h2" />
<path stroke="rgba(31,192,254,0.6431372549019608)" d="M55 53h1" />
<path stroke="rgba(42,212,255,0.023529411764705882)" d="M8 54h1M55 54h1M9 55h1M54 55h1" />
<path stroke="rgba(29,193,254,0.7176470588235294)" d="M9 54h1M54 54h1" />
<path stroke="#1cc1ff" d="M10 54h1M53 54h1" />
<path stroke="rgba(27,196,254,0.6470588235294118)" d="M10 55h1" />
<path stroke="rgba(27,194,254,0.6470588235294118)" d="M53 55h1" />
<path stroke="rgba(27,196,254,0.5490196078431373)" d="M11 56h1M52 56h1" />
<path stroke="#1ac4ff" d="M12 56h1M16 56h1M24 56h2M37 56h1M39 56h2M44 56h1" />
<path stroke="#1ac3ff" d="M17 56h1M19 56h1M30 56h1M32 56h1M38 56h1M45 56h2M51 56h1" />
<path stroke="#19c4ff" d="M18 56h1M26 56h1M31 56h1M47 56h1" />
<path stroke="#19c3ff" d="M23 56h1M33 56h1" />
<path stroke="rgba(127,127,127,0.00784313725490196)" d="M11 57h1" />
<path stroke="#18c5ff" d="M17 57h2M24 57h2M31 57h2M38 57h2M45 57h2" />
<path stroke="rgba(19,215,254,0.050980392156862744)" d="M18 61h1M45 61h1" />
<path stroke="#12caff" d="M24 61h1" />
<path stroke="#11caff" d="M25 61h1M31 61h2M26 62h1M30 62h1M32 62h2M38 62h1" />
<path stroke="#12c9ff" d="M38 61h2" />
<path stroke="rgba(17,202,254,0.8588235294117647)" d="M23 62h1" />
<path stroke="#10caff" d="M24 62h1M37 62h1" />
<path stroke="#11cbff" d="M25 62h1" />
<path stroke="#10cbff" d="M31 62h1M39 62h1" />
<path stroke="rgba(16,202,254,0.8588235294117647)" d="M40 62h1" />
<path stroke="rgba(18,207,254,0.10588235294117647)" d="M24 63h1M39 63h1" />
<path stroke="rgba(15,203,255,0.32941176470588235)" d="M25 63h1M38 63h1" />
<path stroke="rgba(14,204,255,0.4980392156862745)" d="M26 63h1" />
<path stroke="rgba(15,204,254,0.6509803921568628)" d="M27 63h1M36 63h1" />
<path stroke="rgba(15,203,255,0.8)" d="M28 63h1M35 63h1" />
<path stroke="rgba(14,203,254,0.8941176470588236)" d="M29 63h1" />
<path stroke="rgba(14,203,254,0.9607843137254902)" d="M30 63h1" />
<path stroke="#0fccff" d="M31 63h1" />
<path stroke="rgba(15,204,255,0.9803921568627451)" d="M32 63h1" />
<path stroke="rgba(14,203,254,0.9333333333333333)" d="M33 63h1" />
<path stroke="rgba(14,203,254,0.8666666666666667)" d="M34 63h1" />
<path stroke="rgba(16,204,255,0.4980392156862745)" d="M37 63h1" />
</svg>